<svg id="Component_2_1" data-name="Component 2 – 1" xmlns="http://www.w3.org/2000/svg" xmlns:xlink="http://www.w3.org/1999/xlink" width="23.594" height="14.264" viewBox="0 0 23.594 14.264">
  <defs>
    <clipPath id="clip-path">
      <path id="Path_40929" data-name="Path 40929" d="M289.617,201.1h23.594v14.264H289.617Zm0,0" transform="translate(-289.617 -201.102)" fill="#fff"/>
    </clipPath>
  </defs>
  <g id="Group_39455" data-name="Group 39455" clip-path="url(#clip-path)">
    <path id="Path_40928" data-name="Path 40928" d="M310.785,204.177h-.492q-.077-.167-.167-.328t-.19-.316q-.1-.154-.212-.3t-.232-.286q-.121-.139-.252-.268t-.271-.25q-.14-.12-.288-.23t-.3-.209q-.155-.1-.317-.187t-.33-.164q-.168-.076-.341-.14c-.116-.043-.232-.081-.35-.116s-.237-.065-.357-.091-.241-.047-.363-.065-.244-.03-.366-.039-.246-.013-.369-.013h-8.344q-.184,0-.368.013t-.366.039q-.183.026-.363.065t-.357.091q-.177.051-.35.116t-.341.14q-.168.076-.33.164t-.317.187c-.1.066-.2.136-.3.209s-.194.15-.288.23-.184.163-.271.25-.171.176-.252.268-.158.188-.232.286-.145.2-.212.3-.13.208-.19.316-.115.217-.167.328h-.492a2.406,2.406,0,0,0-1.71.707,2.387,2.387,0,0,0-.531.782,2.376,2.376,0,0,0-.185.927q0,.119.012.238t.035.235a2.361,2.361,0,0,0,.058.23c.023.076.05.15.08.224s.064.145.1.215a2.378,2.378,0,0,0,.122.2c.044.066.091.13.142.191s.1.12.16.176.115.109.176.16.125.1.191.142.134.085.2.122.142.071.215.1.148.057.224.08.153.042.231.058.156.027.235.035.158.012.238.012h.5a5.262,5.262,0,0,0,2.847,2.648c-.582,1.265-1.467,3.151-1.479,3.17a.394.394,0,0,0-.033.119.389.389,0,0,0,0,.124.391.391,0,0,0,.119.213.386.386,0,0,0,.464.051l5.71-3.331h5.415q.184,0,.368-.013t.366-.039q.183-.026.363-.064t.357-.09c.118-.034.234-.073.35-.115s.229-.089.341-.14.222-.105.33-.164.214-.12.317-.186.2-.135.3-.208.195-.15.288-.229.184-.163.271-.249.172-.176.252-.268.158-.187.233-.285.145-.2.212-.3.13-.208.19-.315.115-.216.167-.328h.492q.119,0,.238-.012t.235-.035a2.339,2.339,0,0,0,.231-.058q.114-.034.224-.08c.073-.03.145-.064.215-.1s.138-.078.2-.122a2.364,2.364,0,0,0,.191-.142q.092-.075.176-.16t.16-.176a2.359,2.359,0,0,0,.142-.191,2.327,2.327,0,0,0,.122-.2q.056-.1.1-.215t.08-.224a2.35,2.35,0,0,0,.058-.23q.023-.117.035-.235t.012-.237q0-.119-.012-.237t-.035-.235a2.372,2.372,0,0,0-.058-.23q-.035-.114-.08-.224c-.031-.073-.064-.145-.1-.215a2.373,2.373,0,0,0-.122-.2q-.066-.1-.142-.191c-.051-.061-.1-.12-.16-.176a2.331,2.331,0,0,0-.176-.159,2.375,2.375,0,0,0-.191-.142c-.066-.044-.134-.085-.2-.122s-.142-.071-.215-.1-.148-.057-.224-.08-.153-.042-.231-.057-.156-.027-.235-.035A2.362,2.362,0,0,0,310.785,204.177Zm-18.742,4.054c-.053,0-.107,0-.161-.008s-.106-.013-.159-.023-.1-.024-.156-.039-.1-.034-.151-.054a1.67,1.67,0,0,1-.283-.152q-.067-.045-.129-.1t-.119-.108q-.057-.057-.108-.119t-.1-.129c-.03-.045-.057-.091-.083-.138a1.667,1.667,0,0,1-.123-.3,1.534,1.534,0,0,1-.039-.156,1.575,1.575,0,0,1-.024-.159c-.005-.053-.008-.107-.008-.161s0-.107.009-.16.014-.106.025-.158.024-.1.04-.155a1.582,1.582,0,0,1,.055-.15,1.563,1.563,0,0,1,.069-.144,1.587,1.587,0,0,1,.083-.137c.03-.044.062-.087.1-.128a1.564,1.564,0,0,1,.108-.118q.057-.057.119-.107c.041-.034.084-.065.129-.1s.09-.057.138-.082.1-.048.145-.069.1-.039.151-.054.1-.029.156-.039.105-.018.158-.024a1.585,1.585,0,0,1,.16-.008h.189c-.035.126-.063.251-.091.381a.8.8,0,0,0-.016.094c-.023.118-.039.24-.055.361,0,.039-.008.079-.012.122-.012.149-.019.3-.019.452v.44c0,.153.008.3.019.448,0,.043.008.087.012.126.016.118.031.236.051.35.008.035.012.071.02.1.028.134.059.263.094.393ZM310,206.813a3.906,3.906,0,0,1-.019.428,4.217,4.217,0,0,1-.307,1.233q-.061.152-.134.3c-.048.1-.1.194-.155.287s-.114.186-.176.275-.128.177-.2.261-.14.167-.215.246-.152.156-.233.229-.164.144-.249.212-.174.132-.264.192-.183.118-.278.172-.192.1-.29.151-.2.09-.3.129-.2.075-.309.107-.21.059-.316.083-.214.044-.322.059-.216.028-.325.036-.218.012-.327.011h-5.521a.377.377,0,0,0-.2.055l-4.715,2.75c.362-.774.826-1.768,1.128-2.436a.391.391,0,0,0,0-.326.382.382,0,0,0-.248-.212,4.429,4.429,0,0,1-.471-.166,4.491,4.491,0,0,1-.45-.218,4.478,4.478,0,0,1-.813-.579,4.463,4.463,0,0,1-.664-.745,4.4,4.4,0,0,1-.265-.423,4.457,4.457,0,0,1-.216-.45,4.345,4.345,0,0,1-.326-1.662v-.44a4.163,4.163,0,0,1,.326-1.654q.061-.152.133-.3t.155-.288q.083-.141.176-.275t.2-.262q.1-.127.215-.246t.233-.23q.12-.111.249-.212t.264-.193q.136-.091.278-.173t.29-.152q.148-.07.3-.13t.309-.107c.1-.032.21-.06.316-.084s.214-.044.322-.06.216-.028.325-.036.218-.012.327-.012h8.344q.164,0,.327.012t.325.036q.162.024.322.06c.106.024.212.052.316.084s.207.067.309.107.2.083.3.13.195.1.29.152.187.112.278.173.178.125.264.193.169.138.249.212.158.15.233.23.146.162.215.246.134.172.2.262.121.182.176.275.107.19.155.288.093.2.134.3a4.165,4.165,0,0,1,.326,1.654Zm1.939.939a1.61,1.61,0,0,1-.247.2,1.624,1.624,0,0,1-.909.275h-.193c.035-.13.067-.259.094-.393.008-.031.012-.067.02-.1.019-.114.035-.232.051-.35,0-.039.008-.082.012-.126.012-.145.02-.294.02-.448v-.44c0-.149-.008-.3-.02-.452,0-.039-.008-.083-.012-.122-.016-.122-.031-.24-.055-.358a.88.88,0,0,0-.016-.1c-.027-.13-.055-.255-.091-.381h.189a1.624,1.624,0,0,1,.476.069,1.624,1.624,0,0,1,.225.086,1.59,1.59,0,0,1,.21.118,1.621,1.621,0,0,1,.357.322,1.611,1.611,0,0,1,.248.412,1.6,1.6,0,0,1,.076.229,1.632,1.632,0,0,1,.041.237,1.621,1.621,0,0,1-.024.48,1.656,1.656,0,0,1-.065.232,1.633,1.633,0,0,1-.387.6Zm0,0" transform="translate(-289.617 -201.17)" fill="#fff"/>
  </g>
  <path id="Path_40930" data-name="Path 40930" d="M357.769,228.23H349.29q-.169,0-.337.017a3.362,3.362,0,0,0-.334.049q-.166.033-.328.082t-.318.114c-.1.043-.206.091-.305.144s-.2.111-.29.174-.184.13-.271.2-.171.147-.25.227-.155.163-.227.25-.139.178-.2.271-.121.19-.174.289-.1.2-.144.305-.081.21-.114.318-.06.217-.082.327-.039.222-.05.334-.017.224-.017.337.006.225.017.337.028.223.05.334.049.22.082.328.071.214.114.318.091.206.144.305.111.2.174.29.13.184.2.271.147.17.227.25.163.155.25.227.178.138.271.2.19.12.29.174.2.1.305.144.21.081.318.114.217.06.328.082.222.038.334.049.225.017.337.017h8.478q.169,0,.338-.017t.334-.049c.11-.022.22-.049.328-.082s.214-.071.318-.114.206-.091.305-.144.2-.111.29-.174.184-.13.271-.2.171-.147.25-.227.155-.163.227-.25a3.333,3.333,0,0,0,.2-.271q.094-.141.174-.29t.144-.305a3.366,3.366,0,0,0,.114-.318,3.3,3.3,0,0,0,.082-.328q.033-.166.05-.334t.017-.337q0-.169-.017-.337t-.05-.334a3.315,3.315,0,0,0-.082-.327,3.375,3.375,0,0,0-.114-.318q-.065-.156-.144-.305t-.174-.289q-.094-.141-.2-.271t-.227-.25q-.12-.12-.25-.227t-.271-.2q-.141-.094-.29-.174c-.1-.053-.2-.1-.305-.144s-.21-.081-.318-.114-.217-.06-.328-.082-.222-.039-.334-.049S357.881,228.23,357.769,228.23Zm-1.813,3.437a1.269,1.269,0,0,1,.007-.127,1.169,1.169,0,0,1,.019-.126,1.242,1.242,0,0,1,.031-.124,1.266,1.266,0,0,1,.043-.12c.016-.039.035-.078.055-.115a1.226,1.226,0,0,1,.066-.109c.024-.035.049-.069.076-.1s.056-.064.086-.094.062-.058.095-.085.067-.052.1-.076.072-.045.109-.065.076-.038.115-.054a1.271,1.271,0,0,1,.12-.043c.041-.012.082-.022.124-.031a1.252,1.252,0,0,1,.126-.019c.043,0,.085-.006.128-.006s.085,0,.128.006.084.011.126.019.083.019.123.031.081.027.12.043.078.035.115.055.074.042.109.066.069.049.1.076.064.056.095.086a1.274,1.274,0,0,1,.086.095c.027.033.052.067.076.1s.045.072.065.109.038.076.054.115a1.254,1.254,0,0,1,.043.12q.018.061.031.124a1.257,1.257,0,0,1,.019.126c0,.042.006.085.006.127s0,.085-.006.127-.011.084-.019.126-.019.083-.031.124-.027.081-.043.12-.035.077-.055.115a1.248,1.248,0,0,1-.066.109,1.262,1.262,0,0,1-.076.1c-.027.033-.056.064-.086.094s-.062.059-.095.085-.067.052-.1.076-.072.045-.109.065-.076.038-.116.054-.079.03-.12.043-.082.023-.124.031-.084.014-.126.019-.085.006-.128.006-.085,0-.128-.006-.084-.011-.126-.019-.083-.019-.124-.031-.081-.027-.12-.043a1.208,1.208,0,0,1-.115-.055,1.247,1.247,0,0,1-.109-.065c-.035-.024-.069-.049-.1-.076s-.064-.056-.094-.086-.059-.062-.086-.095-.052-.067-.076-.1a1.247,1.247,0,0,1-.065-.109,1.209,1.209,0,0,1-.054-.115q-.024-.059-.043-.12c-.012-.041-.022-.082-.031-.124a1.314,1.314,0,0,1-.024-.254Zm-4.853,0c0,.043,0,.085-.006.127s-.01.084-.019.126-.019.083-.031.124-.027.081-.043.12-.034.078-.054.115-.042.074-.065.109-.049.069-.076.1-.055.064-.085.094a1.214,1.214,0,0,1-.095.086,1.265,1.265,0,0,1-.1.076,1.245,1.245,0,0,1-.109.066c-.037.02-.076.038-.115.055s-.079.031-.12.043a1.251,1.251,0,0,1-.124.031c-.042.008-.084.015-.126.019s-.085.006-.128.006a1.317,1.317,0,0,1-.254-.025c-.042-.008-.083-.019-.124-.031s-.081-.027-.12-.043-.078-.035-.115-.055-.074-.042-.109-.065a1.255,1.255,0,0,1-.1-.076c-.033-.027-.064-.055-.095-.085s-.059-.062-.085-.095a1.2,1.2,0,0,1-.076-.1,1.243,1.243,0,0,1-.066-.109c-.02-.037-.038-.076-.055-.115s-.031-.079-.043-.12-.023-.082-.031-.124a1.25,1.25,0,0,1-.019-.126,1.29,1.29,0,0,1,0-.254c0-.042.011-.085.019-.126a1.22,1.22,0,0,1,.031-.124q.018-.061.043-.12c.016-.039.035-.078.055-.115s.042-.074.066-.109a1.273,1.273,0,0,1,.076-.1,1.3,1.3,0,0,1,.18-.18,1.265,1.265,0,0,1,.1-.076c.035-.023.072-.045.109-.065s.076-.038.115-.055.079-.03.12-.043.082-.023.124-.031a1.258,1.258,0,0,1,.126-.019c.042,0,.085-.006.128-.006s.085,0,.127.006.084.011.126.019a1.225,1.225,0,0,1,.124.031,1.271,1.271,0,0,1,.12.043c.039.016.077.034.115.054s.074.042.109.065.069.049.1.076.064.055.094.085.058.061.085.094a1.271,1.271,0,0,1,.076.1,1.235,1.235,0,0,1,.065.109c.02.037.038.076.055.115a1.255,1.255,0,0,1,.043.12c.012.041.023.082.031.123s.015.083.019.126S351.1,231.625,351.1,231.668Zm0,0" transform="translate(-341.732 -226.245)" fill="#fff"/>
</svg>
