<svg xmlns="http://www.w3.org/2000/svg" width="44" height="44" viewBox="0 0 44 44">
  <g id="Group_39600" data-name="Group 39600" transform="translate(-114 -297.372)">
    <g id="Ellipse_323" data-name="Ellipse 323" transform="translate(114 297.372)" fill="#fff" stroke="rgba(43,43,43,0.1)" stroke-width="1">
      <circle cx="22" cy="22" r="22" stroke="none"/>
      <circle cx="22" cy="22" r="21.5" fill="none"/>
    </g>
    <g id="google" transform="translate(123.363 306.683)">
      <path id="Path_37494" data-name="Path 37494" d="M142.732,109.355a10.873,10.873,0,0,0-.268-2.594H130.55v4.709h6.993a6.2,6.2,0,0,1-2.594,4.117l-.024.158,3.767,2.918.261.026a12.407,12.407,0,0,0,3.779-9.334" transform="translate(-117.861 -96.384)" fill="#4285f4"/>
      <path id="Path_37495" data-name="Path 37495" d="M25.261,166.55a12.1,12.1,0,0,0,8.4-3.074l-4-3.1a7.51,7.51,0,0,1-4.4,1.269,7.639,7.639,0,0,1-7.219-5.273l-.149.013-3.917,3.031-.051.142a12.68,12.68,0,0,0,11.336,6.993" transform="translate(-12.572 -141.171)" fill="#34a853"/>
      <path id="Path_37496" data-name="Path 37496" d="M5.47,79.58a7.812,7.812,0,0,1-.423-2.51,8.209,8.209,0,0,1,.409-2.51l-.007-.168-3.966-3.08-.13.062a12.663,12.663,0,0,0,0,11.392L5.47,79.58" transform="translate(0 -64.381)" fill="#fbbc05"/>
      <path id="Path_37497" data-name="Path 37497" d="M25.261,4.907A7.033,7.033,0,0,1,30.167,6.8l3.581-3.5A12.192,12.192,0,0,0,25.261,0,12.68,12.68,0,0,0,13.925,6.993l4.1,3.186a7.67,7.67,0,0,1,7.233-5.273" transform="translate(-12.572 0)" fill="#eb4335"/>
    </g>
  </g>
</svg>
