<svg xmlns="http://www.w3.org/2000/svg" width="16.737" height="14.794" viewBox="0 0 16.737 14.794">
  <g id="scan-eye" transform="translate(0.75 0.75)">
    <path id="Path_40950" data-name="Path 40950" d="M3,5.954V4.477A1.477,1.477,0,0,1,4.477,3H5.954" transform="translate(-3 -3)" fill="none" stroke="#000" stroke-linecap="round" stroke-linejoin="round" stroke-width="1.5"/>
    <path id="Path_40951" data-name="Path 40951" d="M17,3h1.477a1.477,1.477,0,0,1,1.477,1.477V5.954" transform="translate(-4.717 -3)" fill="none" stroke="#000" stroke-linecap="round" stroke-linejoin="round" stroke-width="1.5"/>
    <path id="Path_40952" data-name="Path 40952" d="M19.954,17v1.477a1.477,1.477,0,0,1-1.477,1.477H17" transform="translate(-4.717 -6.66)" fill="none" stroke="#000" stroke-linecap="round" stroke-linejoin="round" stroke-width="1.5"/>
    <path id="Path_40953" data-name="Path 40953" d="M5.954,19.954H4.477A1.477,1.477,0,0,1,3,18.477V17" transform="translate(-3 -6.66)" fill="none" stroke="#000" stroke-linecap="round" stroke-linejoin="round" stroke-width="1.5"/>
    <circle id="Ellipse_352" data-name="Ellipse 352" cx="1" cy="1" r="1" transform="translate(6.618 5.5)" fill="none" stroke="#000" stroke-linecap="round" stroke-linejoin="round" stroke-width="1.5"/>
    <path id="Path_40954" data-name="Path 40954" d="M15.491,10.636a.622.622,0,0,0,0-.45A5.673,5.673,0,0,0,10.267,7a5.673,5.673,0,0,0-5.224,3.182.622.622,0,0,0,0,.45,5.673,5.673,0,0,0,5.224,3.182,5.673,5.673,0,0,0,5.224-3.182" transform="translate(-2.648 -3.911)" fill="none" stroke="#000" stroke-linecap="round" stroke-linejoin="round" stroke-width="1.5"/>
  </g>
</svg>
